<svg width="128" height="128" viewBox="0 0 128 128" fill="none" xmlns="http://www.w3.org/2000/svg">
  <rect width="128" height="128" rx="32" fill="#0A0A0F" />
  <circle cx="64" cy="64" r="48" fill="url(#paint0_radial)" opacity="0.7" />
  <path d="M64 28L78 54L64 58L50 54L64 28Z" fill="url(#paint1_linear)" opacity="0.9" />
  <path d="M64 100C49 100 37 88 37 73C37 64 41 56 48 51L64 60L80 51C87 56 91 64 91 73C91 88 79 100 64 100Z" stroke="url(#paint2_linear)" stroke-width="4" stroke-linecap="round" stroke-linejoin="round" />
  <circle cx="64" cy="72" r="12" stroke="url(#paint3_linear)" stroke-width="3" fill="rgba(6,182,212,0.15)" />
  <defs>
    <radialGradient id="paint0_radial" cx="0" cy="0" r="1" gradientUnits="userSpaceOnUse" gradientTransform="translate(44 32) rotate(45) scale(96)">
      <stop stop-color="#22D3EE" stop-opacity="0.65" />
      <stop offset="1" stop-color="#0A0A0F" stop-opacity="0" />
    </radialGradient>
    <linearGradient id="paint1_linear" x1="64" y1="28" x2="64" y2="58" gradientUnits="userSpaceOnUse">
      <stop stop-color="#0EA5E9" />
      <stop offset="1" stop-color="#14B8A6" />
    </linearGradient>
    <linearGradient id="paint2_linear" x1="37" y1="73" x2="91" y2="73" gradientUnits="userSpaceOnUse">
      <stop stop-color="#22D3EE" />
      <stop offset="1" stop-color="#D946EF" />
    </linearGradient>
    <linearGradient id="paint3_linear" x1="52" y1="72" x2="76" y2="72" gradientUnits="userSpaceOnUse">
      <stop stop-color="#38BDF8" />
      <stop offset="1" stop-color="#D946EF" />
    </linearGradient>
  </defs>
</svg>
