<svg width="128" height="128" viewBox="0 0 128 128" fill="none" xmlns="http://www.w3.org/2000/svg">
  <rect width="128" height="128" rx="32" fill="#07060E" />
  <path d="M34 78C34 54 48 38 64 38C80 38 94 54 94 78" stroke="url(#paint0_linear)" stroke-width="6" stroke-linecap="round" />
  <path d="M46 90C46 74 54 64 64 64C74 64 82 74 82 90" stroke="url(#paint1_linear)" stroke-width="5" stroke-linecap="round" />
  <circle cx="64" cy="50" r="12" fill="url(#paint2_radial)" stroke="url(#paint3_linear)" stroke-width="3" />
  <path d="M32 100H96" stroke="url(#paint4_linear)" stroke-width="4" stroke-linecap="round" />
  <path d="M64 28L68 36L76 38L68 42L64 50L60 42L52 38L60 36L64 28Z" fill="url(#paint5_linear)" />
  <defs>
    <linearGradient id="paint0_linear" x1="34" y1="78" x2="94" y2="78" gradientUnits="userSpaceOnUse">
      <stop stop-color="#06B6D4" />
      <stop offset="1" stop-color="#D946EF" />
    </linearGradient>
    <linearGradient id="paint1_linear" x1="46" y1="90" x2="82" y2="90" gradientUnits="userSpaceOnUse">
      <stop stop-color="#22D3EE" />
      <stop offset="1" stop-color="#14B8A6" />
    </linearGradient>
    <radialGradient id="paint2_radial" cx="0" cy="0" r="1" gradientUnits="userSpaceOnUse" gradientTransform="translate(56 42) rotate(45) scale(24)">
      <stop stop-color="#22D3EE" stop-opacity="0.6" />
      <stop offset="1" stop-color="#07060E" stop-opacity="0" />
    </radialGradient>
    <linearGradient id="paint3_linear" x1="52" y1="50" x2="76" y2="50" gradientUnits="userSpaceOnUse">
      <stop stop-color="#38BDF8" />
      <stop offset="1" stop-color="#D946EF" />
    </linearGradient>
    <linearGradient id="paint4_linear" x1="32" y1="100" x2="96" y2="100" gradientUnits="userSpaceOnUse">
      <stop stop-color="#22D3EE" />
      <stop offset="1" stop-color="#F472B6" />
    </linearGradient>
    <linearGradient id="paint5_linear" x1="52" y1="28" x2="76" y2="50" gradientUnits="userSpaceOnUse">
      <stop stop-color="#38BDF8" />
      <stop offset="1" stop-color="#D946EF" />
    </linearGradient>
  </defs>
</svg>
